<?xml version="1.0" encoding="UTF-8" standalone="no"?>
<!-- Generator: Adobe Illustrator 26.1.0, SVG Export Plug-In . SVG Version: 6.00 Build 0)  -->

<svg
   version="1.1"
   id="Layer_1"
   x="0px"
   y="0px"
   viewBox="0 0 329 133"
   xml:space="preserve"
   sodipodi:docname="read-on-makc.svg"
   inkscape:version="1.4.4 (dcaf3e7d9e, 2026-05-05)"
   width="329"
   height="133"
   xmlns:inkscape="http://www.inkscape.org/namespaces/inkscape"
   xmlns:sodipodi="http://sodipodi.sourceforge.net/DTD/sodipodi-0.dtd"
   xmlns:xlink="http://www.w3.org/1999/xlink"
   xmlns="http://www.w3.org/2000/svg"
   xmlns:svg="http://www.w3.org/2000/svg"><defs
   id="defs21"><rect
     x="51.680672"
     y="-57.563026"
     width="326.47058"
     height="88.655464"
     id="rect21" /></defs><sodipodi:namedview
   id="namedview21"
   pagecolor="#ffffff"
   bordercolor="#000000"
   borderopacity="0.25"
   inkscape:showpageshadow="2"
   inkscape:pageopacity="0.0"
   inkscape:pagecheckerboard="0"
   inkscape:deskcolor="#d1d1d1"
   inkscape:zoom="1.6829141"
   inkscape:cx="177.37091"
   inkscape:cy="-16.934911"
   inkscape:window-width="1900"
   inkscape:window-height="1023"
   inkscape:window-x="0"
   inkscape:window-y="0"
   inkscape:window-maximized="1"
   inkscape:current-layer="Layer_1" />
<style
   type="text/css"
   id="style1">
	.st0{fill:#939598;}
	.st1{fill:#1269c7;}
	.st2{clip-path:url(#SVGID_00000028314074051516295200000007076188674481870746_);fill:#DC3332;}
	.st3{clip-path:url(#SVGID_00000028314074051516295200000007076188674481870746_);fill:#F04C38;}
	.st4{fill:#126fcc;}
	.st5{fill:#1275d7;}
	.st6{fill:#1269c7;}
</style>


<g
   id="g22"
   transform="matrix(1.3131777,0,0,1.3131777,-393.54253,-19.24177)"><g
     id="g7"
     transform="matrix(0.74634205,0,0,0.74634205,299.36259,30.056207)">
	
	<path
   class="st0"
   d="M 121.3,65.1 V 92 h -5.6 v -6.8 c -2.6,4.5 -7.7,7.2 -15,7.2 -9.9,0 -15.8,-5.1 -15.8,-12.7 0,-6.7 4.3,-12.3 16.8,-12.3 h 13.8 v -2.6 c 0,-7.5 -4.2,-11.5 -12.3,-11.5 -5.6,0 -10.9,2 -14.4,5.1 L 86.1,54 c 4.4,-3.7 10.8,-5.9 17.7,-5.9 11.2,0.2 17.5,5.8 17.5,17 z M 115.5,79 v -7.1 h -13.6 c -8.4,0 -11.2,3.3 -11.2,7.7 0,5 4,8.2 11,8.2 6.6,0.1 11.4,-3.1 13.8,-8.8 z"
   id="path2" />
	<path
   class="st0"
   d="m 153.4,70.3 -10.3,9.4 v 12.4 h -5.8 V 30.7 h 5.9 v 41.6 l 25.9,-23.7 h 7.3 L 157.8,66.4 178.2,92 H 171 Z"
   id="path3" />
	<path
   class="st0"
   d="m 180.8,70.4 c 0,-13 9.4,-22.1 22.4,-22.1 7.4,0 13.5,2.9 17.1,8.6 l -4.4,3 c -3,-4.4 -7.6,-6.4 -12.7,-6.4 -9.5,0 -16.4,6.8 -16.4,17 0,10.3 6.9,17 16.4,17 5,0 9.7,-2 12.7,-6.3 l 4.4,3 c -3.4,5.6 -9.7,8.6 -17.1,8.6 -13,-0.3 -22.4,-9.5 -22.4,-22.4 z"
   id="path4" />
	<path
   class="st1"
   d="m 229.6,88 c 0,-2.6 2,-4.5 4.4,-4.5 2.4,0 4.5,1.9 4.5,4.5 0,2.6 -2,4.6 -4.5,4.6 -2.4,-0.1 -4.4,-2.1 -4.4,-4.6 z"
   id="path5" />
	<path
   class="st0"
   d="m 245.3,70.4 c 0,-13 9.4,-22.1 22.4,-22.1 7.4,0 13.5,2.9 17.1,8.6 l -4.4,3 c -3,-4.4 -7.6,-6.4 -12.7,-6.4 -9.5,0 -16.4,6.8 -16.4,17 0,10.3 6.9,17 16.4,17 5,0 9.7,-2 12.7,-6.3 l 4.4,3 c -3.4,5.6 -9.7,8.6 -17.1,8.6 -12.9,-0.3 -22.4,-9.5 -22.4,-22.4 z"
   id="path6" />
	<path
   class="st0"
   d="m 291.1,70.4 c 0,-12.9 9.4,-22.1 22.2,-22.1 12.8,0 22.1,9.1 22.1,22.1 0,13 -9.3,22.2 -22.1,22.2 -12.8,-0.1 -22.2,-9.4 -22.2,-22.2 z m 38.3,0 c 0,-10.2 -6.9,-17 -16.1,-17 -9.2,0 -16.2,6.8 -16.2,17 0,10.2 6.9,16.9 16.2,16.9 9.3,0 16.1,-6.8 16.1,-16.9 z"
   id="path7" />
</g><g
     id="g15"
     transform="matrix(0.53039067,0,0,0.53039067,329.82234,51.357898)">
	<path
   class="st0"
   d="m 42,117.5 v 2 H 30.4 v -16 h 11.3 v 2 h -9 v 4.9 h 8 v 1.9 h -8 v 5.2 z"
   id="path8" />
	<path
   class="st0"
   d="m 67.1,117.6 0.9,-1.8 c 1.2,1.1 3.3,1.8 5.3,1.8 2.7,0 4,-1.1 4,-2.5 0,-3.9 -9.7,-1.4 -9.7,-7.4 0,-2.5 1.9,-4.6 6.2,-4.6 1.8,0 3.8,0.5 5.2,1.4 l -0.8,1.8 c -1.4,-0.9 -3,-1.3 -4.4,-1.3 -2.7,0 -3.9,1.1 -3.9,2.6 0,3.9 9.7,1.5 9.7,7.3 0,2.5 -1.9,4.6 -6.2,4.6 -2.6,0.1 -5,-0.7 -6.3,-1.9 z"
   id="path9" />
	<path
   class="st0"
   d="m 108.6,105.5 h -5.5 v -2 h 13.3 v 2 H 111 v 14 h -2.3 z"
   id="path10" />
	<path
   class="st1"
   d="m 139.7,118 c 0,-0.9 0.7,-1.6 1.6,-1.6 0.8,0 1.5,0.6 1.5,1.6 0,1 -0.7,1.6 -1.5,1.6 -0.9,0 -1.6,-0.7 -1.6,-1.6 z"
   id="path11" />
	<path
   class="st0"
   d="m 179.2,117.5 v 2 h -11.5 v -1.6 l 6.5,-6.3 c 1.7,-1.7 2,-2.6 2,-3.7 0,-1.7 -1.1,-2.6 -3.4,-2.6 -1.8,0 -3.1,0.5 -4.1,1.8 l -1.5,-1.3 c 1.2,-1.5 3.3,-2.5 5.9,-2.5 3.3,0 5.5,1.7 5.5,4.5 0,1.6 -0.4,3 -2.6,5 l -4.9,4.7 c -0.1,0 8.1,0 8.1,0 z"
   id="path12" />
	<path
   class="st0"
   d="m 203.9,111.4 c 0,-5.2 2.8,-8.2 6.5,-8.2 3.7,0 6.5,3 6.5,8.2 0,5.2 -2.8,8.2 -6.5,8.2 -3.7,0 -6.5,-3 -6.5,-8.2 z m 10.8,0 c 0,-4.1 -1.8,-6.2 -4.2,-6.2 -2.6,0 -4.2,2 -4.2,6.2 0,4.1 1.8,6.2 4.2,6.2 2.4,0 4.2,-2 4.2,-6.2 z"
   id="path13" />
	<path
   class="st0"
   d="m 246.9,103.4 v 16 h -2.3 v -14 H 241 v -2 z"
   id="path14" />
	<path
   class="st0"
   d="m 284.5,117.5 v 2 H 273 v -1.6 l 6.5,-6.3 c 1.7,-1.7 2,-2.6 2,-3.7 0,-1.7 -1.1,-2.6 -3.4,-2.6 -1.8,0 -3.1,0.5 -4.1,1.8 l -1.6,-1.3 c 1.2,-1.5 3.3,-2.5 5.9,-2.5 3.3,0 5.5,1.7 5.5,4.5 0,1.6 -0.4,3 -2.6,5 l -4.9,4.7 z"
   id="path15" />
</g><g
     id="g21"
     transform="matrix(0.35854341,0,0,0.35854341,156.94062,45.798319)">
	<g
   id="g17">
		<defs
   id="defs15">
			<rect
   id="SVGID_1_"
   x="399.39999"
   y="0"
   width="150.60001"
   height="150" />
		</defs>
		<clipPath
   id="SVGID_00000057850968674422742660000004185597418607807894_">
			<use
   xlink:href="#SVGID_1_"
   style="overflow:visible"
   id="use15" />
		</clipPath>
		<path
   style="fill:#127fdc"
   d="m 399.4,30 v 0.8 c 0,5.1 2.5,9.9 6.7,12.8 l 81.7,56.5 c 10.4,7.2 24.5,-0.2 24.5,-12.8 v 0 c 0,-5.1 -2.5,-9.8 -6.6,-12.7 L 424,17.2 C 413.7,10 399.4,17.4 399.4,30 Z"
   clip-path="url(#SVGID_00000057850968674422742660000004185597418607807894_)"
   id="path16" />
		<path
   style="fill:#1288ef"
   d="m 424.2,63.9 v 0 c 4.2,2.9 6.8,7.8 6.8,12.9 v 57.5 c 0,8.7 -7.1,15.7 -15.8,15.7 v 0 c -8.7,0 -15.8,-7 -15.8,-15.7 V 76.8 c 0,-12.7 14.3,-20.2 24.8,-12.9 z"
   clip-path="url(#SVGID_00000057850968674422742660000004185597418607807894_)"
   id="path17" />
	</g>
	<path
   class="st4"
   d="m 513.2,34.1 v 0 c 0,5.1 -2.5,9.9 -6.7,12.9 l -5.2,3.7 c -5.5,3.9 -12.8,3.9 -18.3,0.1 v 0 c -9,-6.3 -9.1,-19.6 0,-25.9 l 5.2,-3.6 c 10.5,-7.6 25,-0.1 25,12.8 z"
   id="path18" />
	<g
   id="g20">
		<path
   class="st5"
   d="m 436.6,84.2 v 0 c 0,4.8 5.4,7.6 9.4,4.9 v 0 c 3.4,-2.4 3.4,-7.4 0,-9.8 v 0 c -4,-2.7 -9.4,0.1 -9.4,4.9 z"
   id="path19" />
		<path
   class="st6"
   d="m 518.4,15.7 v 118.5 c 0,8.7 7.1,15.7 15.8,15.7 v 0 c 8.7,0 15.8,-7 15.8,-15.7 V 15.7 C 550,7 542.9,0 534.2,0 v 0 c -8.7,0 -15.8,7 -15.8,15.7 z"
   id="path20" />
	</g>
</g></g>
<text
   xml:space="preserve"
   style="font-weight:600;font-size:33.16px;line-height:0.9;font-family:Montserrat;-inkscape-font-specification:'Montserrat Semi-Bold';writing-mode:lr-tb;direction:ltr;fill:#808080;stroke-width:0.888217"
   x="36.255005"
   y="25.875427"
   id="text1"><tspan
     sodipodi:role="line"
     id="tspan1"
     x="36.255005"
     y="25.875427"
     style="font-style:normal;font-variant:normal;font-weight:normal;font-stretch:normal;font-size:33.16px;font-family:Montserrat;-inkscape-font-specification:Montserrat;stroke-width:0.888217">Also available at</tspan></text></svg>
